<mxfile host="Electron" agent="Mozilla/5.0 (Windows NT 10.0; Win64; x64) AppleWebKit/537.36 (KHTML, like Gecko) draw.io/28.0.6 Chrome/138.0.7204.100 Electron/37.2.3 Safari/537.36" version="28.0.6">
  <diagram name="Page-1" id="B6tMnKdZf2fUmzHXz2xQ">
    <mxGraphModel dx="1042" dy="626" grid="1" gridSize="10" guides="1" tooltips="1" connect="1" arrows="1" fold="1" page="1" pageScale="1" pageWidth="850" pageHeight="1100" math="0" shadow="0">
      <root>
        <mxCell id="0" />
        <mxCell id="1" parent="0" />
        <mxCell id="Xqj8M3EzZ1G5YtVN1Ny2-15" value="" style="rounded=0;whiteSpace=wrap;html=1;fillColor=none;strokeColor=default;" parent="1" vertex="1">
          <mxGeometry x="20" y="170" width="140" height="360" as="geometry" />
        </mxCell>
        <mxCell id="c0tRtrIdt1vCZIEKp_bH-4" style="edgeStyle=orthogonalEdgeStyle;rounded=0;orthogonalLoop=1;jettySize=auto;html=1;entryX=0;entryY=0.75;entryDx=0;entryDy=0;" parent="1" source="Xqj8M3EzZ1G5YtVN1Ny2-16" target="Xqj8M3EzZ1G5YtVN1Ny2-28" edge="1">
          <mxGeometry relative="1" as="geometry" />
        </mxCell>
        <mxCell id="c0tRtrIdt1vCZIEKp_bH-5" style="edgeStyle=orthogonalEdgeStyle;rounded=0;orthogonalLoop=1;jettySize=auto;html=1;" parent="1" source="Xqj8M3EzZ1G5YtVN1Ny2-16" target="Xqj8M3EzZ1G5YtVN1Ny2-29" edge="1">
          <mxGeometry relative="1" as="geometry" />
        </mxCell>
        <mxCell id="c0tRtrIdt1vCZIEKp_bH-6" style="edgeStyle=orthogonalEdgeStyle;rounded=0;orthogonalLoop=1;jettySize=auto;html=1;entryX=0;entryY=0.5;entryDx=0;entryDy=0;" parent="1" source="Xqj8M3EzZ1G5YtVN1Ny2-16" target="Xqj8M3EzZ1G5YtVN1Ny2-30" edge="1">
          <mxGeometry relative="1" as="geometry" />
        </mxCell>
        <mxCell id="Xqj8M3EzZ1G5YtVN1Ny2-16" value="" style="image;aspect=fixed;html=1;points=[];align=center;fontSize=12;image=img/lib/azure2/general/Folder_Blank.svg;" parent="1" vertex="1">
          <mxGeometry x="71.08" y="433.77" width="48.92" height="39.7" as="geometry" />
        </mxCell>
        <mxCell id="Xqj8M3EzZ1G5YtVN1Ny2-17" value="SOURCES" style="rounded=1;whiteSpace=wrap;html=1;" parent="1" vertex="1">
          <mxGeometry x="40.36" y="150" width="100" height="40" as="geometry" />
        </mxCell>
        <mxCell id="c0tRtrIdt1vCZIEKp_bH-1" style="edgeStyle=orthogonalEdgeStyle;rounded=0;orthogonalLoop=1;jettySize=auto;html=1;entryX=0;entryY=0.5;entryDx=0;entryDy=0;" parent="1" source="Xqj8M3EzZ1G5YtVN1Ny2-21" target="Xqj8M3EzZ1G5YtVN1Ny2-24" edge="1">
          <mxGeometry relative="1" as="geometry" />
        </mxCell>
        <mxCell id="c0tRtrIdt1vCZIEKp_bH-2" style="edgeStyle=orthogonalEdgeStyle;rounded=0;orthogonalLoop=1;jettySize=auto;html=1;" parent="1" source="Xqj8M3EzZ1G5YtVN1Ny2-21" target="Xqj8M3EzZ1G5YtVN1Ny2-26" edge="1">
          <mxGeometry relative="1" as="geometry" />
        </mxCell>
        <mxCell id="c0tRtrIdt1vCZIEKp_bH-3" style="edgeStyle=orthogonalEdgeStyle;rounded=0;orthogonalLoop=1;jettySize=auto;html=1;entryX=0;entryY=0.75;entryDx=0;entryDy=0;" parent="1" source="Xqj8M3EzZ1G5YtVN1Ny2-21" target="Xqj8M3EzZ1G5YtVN1Ny2-27" edge="1">
          <mxGeometry relative="1" as="geometry" />
        </mxCell>
        <mxCell id="Xqj8M3EzZ1G5YtVN1Ny2-21" value="" style="image;aspect=fixed;html=1;points=[];align=center;fontSize=12;image=img/lib/azure2/general/Folder_Blank.svg;" parent="1" vertex="1">
          <mxGeometry x="69.64" y="250" width="44.64" height="36.23" as="geometry" />
        </mxCell>
        <mxCell id="Xqj8M3EzZ1G5YtVN1Ny2-22" value="CRM" style="text;html=1;align=center;verticalAlign=middle;resizable=0;points=[];autosize=1;strokeColor=none;fillColor=none;" parent="1" vertex="1">
          <mxGeometry x="65.00000000000001" y="286.23" width="50" height="30" as="geometry" />
        </mxCell>
        <mxCell id="Xqj8M3EzZ1G5YtVN1Ny2-23" value="" style="rounded=0;whiteSpace=wrap;html=1;fillColor=none;" parent="1" vertex="1">
          <mxGeometry x="250.36" y="170" width="160" height="360" as="geometry" />
        </mxCell>
        <mxCell id="GK5YzS4H61INHmNDVURw-23" style="edgeStyle=orthogonalEdgeStyle;rounded=0;orthogonalLoop=1;jettySize=auto;html=1;" parent="1" source="Xqj8M3EzZ1G5YtVN1Ny2-24" target="GK5YzS4H61INHmNDVURw-16" edge="1">
          <mxGeometry relative="1" as="geometry" />
        </mxCell>
        <mxCell id="Xqj8M3EzZ1G5YtVN1Ny2-24" value="&lt;font style=&quot;color: rgb(0, 0, 0);&quot;&gt;crm_sales_details&lt;/font&gt;" style="rounded=1;whiteSpace=wrap;html=1;fillColor=#FFCB2C;fontColor=#000000;textShadow=0;labelBackgroundColor=none;labelBorderColor=none;fontFamily=Helvetica;" parent="1" vertex="1">
          <mxGeometry x="265.36" y="210" width="130" height="30" as="geometry" />
        </mxCell>
        <mxCell id="Xqj8M3EzZ1G5YtVN1Ny2-25" value="BRONZE LAYER" style="rounded=1;whiteSpace=wrap;html=1;fillColor=#FFCB2C;fontColor=#000000;" parent="1" vertex="1">
          <mxGeometry x="255.36" y="120" width="150" height="30" as="geometry" />
        </mxCell>
        <mxCell id="GK5YzS4H61INHmNDVURw-24" style="edgeStyle=orthogonalEdgeStyle;rounded=0;orthogonalLoop=1;jettySize=auto;html=1;entryX=0;entryY=0.5;entryDx=0;entryDy=0;" parent="1" source="Xqj8M3EzZ1G5YtVN1Ny2-26" target="GK5YzS4H61INHmNDVURw-18" edge="1">
          <mxGeometry relative="1" as="geometry" />
        </mxCell>
        <mxCell id="Xqj8M3EzZ1G5YtVN1Ny2-26" value="&lt;font style=&quot;color: rgb(0, 0, 0);&quot;&gt;crm_cust_info&lt;/font&gt;" style="rounded=1;whiteSpace=wrap;html=1;fillColor=#FFCB2C;fontColor=#000000;" parent="1" vertex="1">
          <mxGeometry x="265.36" y="256.23" width="130" height="30" as="geometry" />
        </mxCell>
        <mxCell id="GK5YzS4H61INHmNDVURw-25" style="edgeStyle=orthogonalEdgeStyle;rounded=0;orthogonalLoop=1;jettySize=auto;html=1;" parent="1" source="Xqj8M3EzZ1G5YtVN1Ny2-27" target="GK5YzS4H61INHmNDVURw-19" edge="1">
          <mxGeometry relative="1" as="geometry" />
        </mxCell>
        <mxCell id="Xqj8M3EzZ1G5YtVN1Ny2-27" value="crm_prd_info" style="rounded=1;whiteSpace=wrap;html=1;fillColor=#FFCB2C;fontColor=#000000;" parent="1" vertex="1">
          <mxGeometry x="265.36" y="300" width="130" height="30" as="geometry" />
        </mxCell>
        <mxCell id="GK5YzS4H61INHmNDVURw-26" style="edgeStyle=orthogonalEdgeStyle;rounded=0;orthogonalLoop=1;jettySize=auto;html=1;" parent="1" source="Xqj8M3EzZ1G5YtVN1Ny2-28" edge="1">
          <mxGeometry relative="1" as="geometry">
            <mxPoint x="485" y="395" as="targetPoint" />
          </mxGeometry>
        </mxCell>
        <mxCell id="Xqj8M3EzZ1G5YtVN1Ny2-28" value="&lt;font style=&quot;color: rgb(0, 0, 0);&quot;&gt;erp_cust_az12&lt;/font&gt;" style="rounded=1;whiteSpace=wrap;html=1;fillColor=#FFCB2C;fontColor=#000000;" parent="1" vertex="1">
          <mxGeometry x="265.36" y="380" width="130" height="30" as="geometry" />
        </mxCell>
        <mxCell id="GK5YzS4H61INHmNDVURw-27" style="edgeStyle=orthogonalEdgeStyle;rounded=0;orthogonalLoop=1;jettySize=auto;html=1;" parent="1" source="Xqj8M3EzZ1G5YtVN1Ny2-29" target="GK5YzS4H61INHmNDVURw-21" edge="1">
          <mxGeometry relative="1" as="geometry" />
        </mxCell>
        <mxCell id="Xqj8M3EzZ1G5YtVN1Ny2-29" value="erp_loc_101" style="rounded=1;whiteSpace=wrap;html=1;fillColor=#FFCB2C;fontColor=#000000;" parent="1" vertex="1">
          <mxGeometry x="265.36" y="426.23" width="130" height="30" as="geometry" />
        </mxCell>
        <mxCell id="GK5YzS4H61INHmNDVURw-28" style="edgeStyle=orthogonalEdgeStyle;rounded=0;orthogonalLoop=1;jettySize=auto;html=1;" parent="1" source="Xqj8M3EzZ1G5YtVN1Ny2-30" target="GK5YzS4H61INHmNDVURw-22" edge="1">
          <mxGeometry relative="1" as="geometry" />
        </mxCell>
        <mxCell id="Xqj8M3EzZ1G5YtVN1Ny2-30" value="erp_px_cat_g1v2" style="rounded=1;whiteSpace=wrap;html=1;fillColor=#FFCB2C;fontColor=#000000;" parent="1" vertex="1">
          <mxGeometry x="265.36" y="470" width="130" height="30" as="geometry" />
        </mxCell>
        <mxCell id="Xqj8M3EzZ1G5YtVN1Ny2-40" value="ERP" style="text;html=1;align=center;verticalAlign=middle;resizable=0;points=[];autosize=1;strokeColor=none;fillColor=none;" parent="1" vertex="1">
          <mxGeometry x="65.72" y="470" width="50" height="30" as="geometry" />
        </mxCell>
        <mxCell id="GK5YzS4H61INHmNDVURw-15" value="" style="rounded=0;whiteSpace=wrap;html=1;fillColor=none;" parent="1" vertex="1">
          <mxGeometry x="470" y="170" width="160" height="360" as="geometry" />
        </mxCell>
        <mxCell id="GK5YzS4H61INHmNDVURw-16" value="&lt;font style=&quot;color: rgb(0, 0, 0);&quot;&gt;crm_sales_details&lt;/font&gt;" style="rounded=1;whiteSpace=wrap;html=1;fillColor=#FFFFFF;fontColor=#000000;textShadow=0;labelBackgroundColor=none;labelBorderColor=none;fontFamily=Helvetica;" parent="1" vertex="1">
          <mxGeometry x="485" y="210" width="130" height="30" as="geometry" />
        </mxCell>
        <mxCell id="GK5YzS4H61INHmNDVURw-17" value="&lt;div&gt;SILVER LAYER&lt;/div&gt;" style="rounded=1;whiteSpace=wrap;html=1;fillColor=#FFFFFF;fontColor=#000000;strokeColor=#000000;" parent="1" vertex="1">
          <mxGeometry x="475" y="120" width="150" height="30" as="geometry" />
        </mxCell>
        <mxCell id="GK5YzS4H61INHmNDVURw-18" value="&lt;font style=&quot;color: rgb(0, 0, 0);&quot;&gt;crm_cust_info&lt;/font&gt;" style="rounded=1;whiteSpace=wrap;html=1;fillColor=#FFFFFF;fontColor=#000000;" parent="1" vertex="1">
          <mxGeometry x="485" y="256.23" width="130" height="30" as="geometry" />
        </mxCell>
        <mxCell id="GK5YzS4H61INHmNDVURw-19" value="crm_prd_info" style="rounded=1;whiteSpace=wrap;html=1;fillColor=#FFFFFF;fontColor=#000000;" parent="1" vertex="1">
          <mxGeometry x="485" y="300" width="130" height="30" as="geometry" />
        </mxCell>
        <mxCell id="GK5YzS4H61INHmNDVURw-21" value="erp_loc_101" style="rounded=1;whiteSpace=wrap;html=1;fillColor=#FFFFFF;fontColor=#000000;" parent="1" vertex="1">
          <mxGeometry x="485" y="426.23" width="130" height="30" as="geometry" />
        </mxCell>
        <mxCell id="GK5YzS4H61INHmNDVURw-22" value="erp_px_cat_g1v2" style="rounded=1;whiteSpace=wrap;html=1;fillColor=#FFFFFF;fontColor=#000000;" parent="1" vertex="1">
          <mxGeometry x="485" y="470" width="130" height="30" as="geometry" />
        </mxCell>
        <mxCell id="-nW1qFQ2_SvjvJ-UIqOl-1" value="" style="rounded=0;whiteSpace=wrap;html=1;fillColor=none;" parent="1" vertex="1">
          <mxGeometry x="680" y="170" width="160" height="360" as="geometry" />
        </mxCell>
        <mxCell id="-nW1qFQ2_SvjvJ-UIqOl-2" value="&lt;font style=&quot;color: rgb(0, 0, 0);&quot;&gt;fact_sales&lt;/font&gt;" style="rounded=1;whiteSpace=wrap;html=1;fillColor=#CCCC00;fontColor=#000000;textShadow=0;labelBackgroundColor=none;labelBorderColor=none;fontFamily=Helvetica;" parent="1" vertex="1">
          <mxGeometry x="695" y="240" width="130" height="30" as="geometry" />
        </mxCell>
        <mxCell id="-nW1qFQ2_SvjvJ-UIqOl-3" value="GOLD LAYER" style="rounded=1;whiteSpace=wrap;html=1;fillColor=#CCCC00;fontColor=#000000;strokeColor=#CCCC00;" parent="1" vertex="1">
          <mxGeometry x="685" y="120" width="150" height="30" as="geometry" />
        </mxCell>
        <mxCell id="-nW1qFQ2_SvjvJ-UIqOl-4" value="&lt;font style=&quot;color: rgb(0, 0, 0);&quot;&gt;dim_customers&lt;/font&gt;" style="rounded=1;whiteSpace=wrap;html=1;fillColor=#CCCC00;fontColor=#000000;" parent="1" vertex="1">
          <mxGeometry x="695" y="335" width="130" height="30" as="geometry" />
        </mxCell>
        <mxCell id="-nW1qFQ2_SvjvJ-UIqOl-5" value="dim_products" style="rounded=1;whiteSpace=wrap;html=1;fillColor=#CCCC00;fontColor=#000000;" parent="1" vertex="1">
          <mxGeometry x="695" y="426.23" width="130" height="30" as="geometry" />
        </mxCell>
        <mxCell id="-nW1qFQ2_SvjvJ-UIqOl-21" value="&lt;font style=&quot;color: rgb(0, 0, 0);&quot;&gt;erp_cust_az12&lt;/font&gt;" style="rounded=1;whiteSpace=wrap;html=1;fillColor=#FFFFFF;fontColor=#000000;" parent="1" vertex="1">
          <mxGeometry x="485" y="380" width="130" height="30" as="geometry" />
        </mxCell>
        <mxCell id="-nW1qFQ2_SvjvJ-UIqOl-26" value="" style="endArrow=classic;html=1;rounded=0;entryX=0;entryY=0.5;entryDx=0;entryDy=0;exitX=1;exitY=0.5;exitDx=0;exitDy=0;" parent="1" source="GK5YzS4H61INHmNDVURw-16" target="-nW1qFQ2_SvjvJ-UIqOl-2" edge="1">
          <mxGeometry width="50" height="50" relative="1" as="geometry">
            <mxPoint x="400" y="350" as="sourcePoint" />
            <mxPoint x="450" y="300" as="targetPoint" />
          </mxGeometry>
        </mxCell>
        <mxCell id="-nW1qFQ2_SvjvJ-UIqOl-27" value="" style="endArrow=classic;html=1;rounded=0;entryX=0;entryY=0.5;entryDx=0;entryDy=0;exitX=1;exitY=0.5;exitDx=0;exitDy=0;jumpStyle=gap;" parent="1" source="-nW1qFQ2_SvjvJ-UIqOl-21" target="-nW1qFQ2_SvjvJ-UIqOl-4" edge="1">
          <mxGeometry width="50" height="50" relative="1" as="geometry">
            <mxPoint x="400" y="350" as="sourcePoint" />
            <mxPoint x="450" y="300" as="targetPoint" />
          </mxGeometry>
        </mxCell>
        <mxCell id="-nW1qFQ2_SvjvJ-UIqOl-28" value="" style="endArrow=classic;html=1;rounded=0;entryX=0;entryY=1;entryDx=0;entryDy=0;exitX=1;exitY=0.5;exitDx=0;exitDy=0;jumpStyle=gap;" parent="1" source="GK5YzS4H61INHmNDVURw-21" target="-nW1qFQ2_SvjvJ-UIqOl-4" edge="1">
          <mxGeometry width="50" height="50" relative="1" as="geometry">
            <mxPoint x="400" y="350" as="sourcePoint" />
            <mxPoint x="450" y="300" as="targetPoint" />
          </mxGeometry>
        </mxCell>
        <mxCell id="-nW1qFQ2_SvjvJ-UIqOl-29" value="" style="endArrow=classic;html=1;rounded=0;entryX=0;entryY=0.25;entryDx=0;entryDy=0;exitX=1;exitY=0.5;exitDx=0;exitDy=0;jumpStyle=gap;" parent="1" source="GK5YzS4H61INHmNDVURw-18" target="-nW1qFQ2_SvjvJ-UIqOl-4" edge="1">
          <mxGeometry width="50" height="50" relative="1" as="geometry">
            <mxPoint x="400" y="350" as="sourcePoint" />
            <mxPoint x="450" y="300" as="targetPoint" />
          </mxGeometry>
        </mxCell>
        <mxCell id="-nW1qFQ2_SvjvJ-UIqOl-30" value="" style="endArrow=classic;html=1;rounded=0;entryX=0;entryY=0.5;entryDx=0;entryDy=0;exitX=1;exitY=0.5;exitDx=0;exitDy=0;jumpStyle=gap;" parent="1" source="GK5YzS4H61INHmNDVURw-22" target="-nW1qFQ2_SvjvJ-UIqOl-5" edge="1">
          <mxGeometry width="50" height="50" relative="1" as="geometry">
            <mxPoint x="400" y="350" as="sourcePoint" />
            <mxPoint x="450" y="300" as="targetPoint" />
          </mxGeometry>
        </mxCell>
        <mxCell id="-nW1qFQ2_SvjvJ-UIqOl-31" value="" style="endArrow=classic;html=1;rounded=0;entryX=0;entryY=0.5;entryDx=0;entryDy=0;exitX=1;exitY=0.5;exitDx=0;exitDy=0;jumpStyle=gap;" parent="1" source="GK5YzS4H61INHmNDVURw-19" target="-nW1qFQ2_SvjvJ-UIqOl-5" edge="1">
          <mxGeometry width="50" height="50" relative="1" as="geometry">
            <mxPoint x="400" y="350" as="sourcePoint" />
            <mxPoint x="450" y="300" as="targetPoint" />
          </mxGeometry>
        </mxCell>
        <mxCell id="ZXk9ctZ84DvNRmgnl2Jl-1" value="&lt;font style=&quot;font-size: 18px;&quot; face=&quot;Verdana&quot;&gt;DATA FLOW&lt;/font&gt;" style="text;html=1;align=center;verticalAlign=middle;resizable=0;points=[];autosize=1;strokeColor=none;fillColor=none;" vertex="1" parent="1">
          <mxGeometry x="390" y="60" width="130" height="40" as="geometry" />
        </mxCell>
      </root>
    </mxGraphModel>
  </diagram>
</mxfile>
